<svg width="256" height="256" viewBox="0 0 256 256" fill="none" xmlns="http://www.w3.org/2000/svg">
<g clip-path="url(#clip0_2_2)">
<path d="M196 0H60C26.8629 0 0 26.8629 0 60V196C0 229.137 26.8629 256 60 256H196C229.137 256 256 229.137 256 196V60C256 26.8629 229.137 0 196 0Z" fill="#242938"/>
<path d="M29.0625 140.256V116.744L112.453 73.15V94.75L50.8594 128.071L112.467 162.067V183.864L29.0625 140.256ZM224.63 77.8187L151.863 179.329H126.881L199.788 77.8117L224.63 77.8187ZM204.471 167.172C205.296 167.188 206.114 167.021 206.867 166.683C207.619 166.345 208.287 165.844 208.823 165.217C210.031 163.782 210.654 161.944 210.567 160.07C210.637 158.154 210.019 156.275 208.823 154.776C208.319 154.121 207.671 153.59 206.929 153.225C206.187 152.86 205.372 152.67 204.545 152.67C203.718 152.67 202.902 152.86 202.161 153.225C201.419 153.59 200.771 154.121 200.266 154.776C199.071 156.275 198.452 158.154 198.523 160.07C198.434 161.931 199.026 163.761 200.189 165.217C200.707 165.847 201.362 166.351 202.104 166.689C202.846 167.028 203.656 167.193 204.471 167.172ZM219.841 174.498C215.644 178.292 210.185 180.386 204.528 180.373C198.871 180.36 193.421 178.241 189.241 174.428C187.319 172.552 185.79 170.31 184.747 167.835C183.704 165.36 183.166 162.7 183.166 160.014C183.166 157.328 183.704 154.669 184.747 152.193C185.79 149.718 187.319 147.476 189.241 145.6C193.419 141.776 198.878 139.655 204.541 139.655C210.205 139.655 215.663 141.776 219.841 145.6C221.802 147.454 223.355 149.696 224.405 152.181C225.454 154.667 225.976 157.344 225.937 160.042C225.989 162.739 225.474 165.417 224.425 167.903C223.376 170.388 221.817 172.626 219.848 174.47L219.841 174.498ZM147.335 107.835C148.16 107.851 148.978 107.684 149.731 107.346C150.483 107.008 151.152 106.508 151.687 105.88C152.895 104.445 153.518 102.607 153.431 100.734C153.502 98.817 152.883 96.9387 151.687 95.4391C151.182 94.7852 150.534 94.2559 149.792 93.8917C149.051 93.5275 148.235 93.3381 147.409 93.3381C146.583 93.3381 145.767 93.5275 145.026 93.8917C144.284 94.2559 143.636 94.7852 143.13 95.4391C141.935 96.9387 141.316 98.817 141.387 100.734C141.298 102.595 141.89 104.424 143.053 105.88C143.571 106.51 144.226 107.014 144.968 107.353C145.71 107.691 146.52 107.856 147.335 107.835ZM162.705 115.141C158.508 118.934 153.049 121.028 147.392 121.015C141.735 121.002 136.285 118.883 132.105 115.07C130.183 113.194 128.655 110.953 127.611 108.477C126.568 106.002 126.03 103.343 126.03 100.656C126.03 97.9699 126.568 95.3107 127.611 92.8353C128.655 90.3598 130.183 88.1181 132.105 86.2422C136.283 82.4184 141.742 80.2976 147.405 80.2976C153.069 80.2976 158.527 82.4184 162.705 86.2422C164.672 88.1044 166.23 90.3561 167.278 92.8535C168.326 95.351 168.843 98.0395 168.795 100.748C168.841 103.439 168.324 106.11 167.275 108.589C166.226 111.068 164.67 113.3 162.705 115.141Z" fill="#90A93A"/>
</g>
<defs>
<clipPath id="clip0_2_2">
<rect width="256" height="256" fill="white"/>
</clipPath>
</defs>
</svg>
