<svg width="256" height="256" viewBox="0 0 256 256" fill="none" xmlns="http://www.w3.org/2000/svg">
<g clip-path="url(#clip0_1_2)">
<path d="M196 0H60C26.8629 0 0 26.8629 0 60V196C0 229.137 26.8629 256 60 256H196C229.137 256 256 229.137 256 196V60C256 26.8629 229.137 0 196 0Z" fill="#242938"/>
<g clip-path="url(#clip1_1_2)">
<path d="M127.934 42.0013C80.5602 42.0013 42.0013 80.5602 42.0013 127.934C42.0013 175.308 80.5602 213.867 127.934 213.867C175.308 213.867 213.867 175.308 213.867 127.934C213.867 80.5602 175.309 42.0013 127.934 42.0013ZM127.934 56.3512C167.553 56.3512 199.518 88.3149 199.518 127.934C199.518 167.555 167.553 199.518 127.934 199.518C88.3149 199.518 56.3498 167.555 56.3498 127.934C56.3498 88.3149 88.3149 56.3512 127.934 56.3512Z" fill="white"/>
<path fill-rule="evenodd" clip-rule="evenodd" d="M107.024 123.587C125.842 108.215 144.249 92.3073 163.476 77.3836C153.391 92.8811 143.019 108.173 132.934 123.669C124.285 123.709 115.633 123.709 107.024 123.587ZM122.931 132.155C131.623 132.155 140.272 132.155 148.922 132.279C129.982 147.57 111.657 163.6 92.3893 178.482C102.474 162.985 112.847 147.652 122.931 132.155Z" fill="white"/>
</g>
</g>
<defs>
<clipPath id="clip0_1_2">
<rect width="256" height="256" fill="white"/>
</clipPath>
<clipPath id="clip1_1_2">
<rect width="172" height="172" fill="white" transform="translate(42 42)"/>
</clipPath>
</defs>
</svg>
